<svg xmlns="http://www.w3.org/2000/svg" viewBox="0 0 100 100">
  <!-- 背景圆圈 -->
  <circle cx="50" cy="50" r="45" fill="#4CAF50" />
  
  <!-- 随机符号 -->
  <path d="M35 45 L45 35 L55 35 L65 45" stroke="white" stroke-width="3" fill="none" />
  
  <!-- 猫脸轮廓 -->
  <path d="M30 35 
           Q50 25 70 35
           Q80 45 80 60
           Q80 80 50 85
           Q20 80 20 60
           Q20 45 30 35" 
        fill="#388E3C"/>
  
  <!-- 耳朵 -->
  <path d="M30 35 L25 25 L35 30 Z" fill="#388E3C"/>
  <path d="M70 35 L75 25 L65 30 Z" fill="#388E3C"/>
  
  <!-- 眼睛 -->
  <circle cx="40" cy="50" r="4" fill="white"/>
  <circle cx="60" cy="50" r="4" fill="white"/>
  
  <!-- 鼻子 -->
  <path d="M47 60 Q50 62 53 60 Q50 65 47 60" fill="white"/>
  
  <!-- 胡须 -->
  <line x1="35" y1="62" x2="25" y2="60" stroke="white" stroke-width="1.5"/>
  <line x1="35" y1="65" x2="25" y2="65" stroke="white" stroke-width="1.5"/>
  <line x1="65" y1="62" x2="75" y2="60" stroke="white" stroke-width="1.5"/>
  <line x1="65" y1="65" x2="75" y2="65" stroke="white" stroke-width="1.5"/>
  
  <!-- 骰子点 -->
  <circle cx="35" cy="75" r="2" fill="white"/>
  <circle cx="45" cy="75" r="2" fill="white"/>
  <circle cx="55" cy="75" r="2" fill="white"/>
  <circle cx="65" cy="75" r="2" fill="white"/>
</svg>
